<svg width="26" height="24" viewBox="0 0 26 24" fill="none" xmlns="http://www.w3.org/2000/svg">
<path d="M24.6667 11.9999V21.3333C24.6667 21.9521 24.4209 22.5456 23.9833 22.9832C23.5457 23.4208 22.9523 23.6666 22.3334 23.6666H3.66675C3.04791 23.6666 2.45442 23.4208 2.01683 22.9832C1.57925 22.5456 1.33341 21.9521 1.33341 21.3333V11.9999C1.024 11.9999 0.727249 11.877 0.508457 11.6582C0.289664 11.4394 0.166748 11.1427 0.166748 10.8333V7.33325C0.166748 6.71441 0.412581 6.12092 0.850166 5.68334C1.28775 5.24575 1.88124 4.99992 2.50008 4.99992H6.19841C6.07008 4.63825 6.00008 4.24159 6.00008 3.83325C6.00008 2.90499 6.36883 2.01476 7.02521 1.35838C7.68158 0.702001 8.57182 0.333252 9.50008 0.333252C10.6667 0.333252 11.6934 0.916585 12.3351 1.77992V1.76825L13.0001 2.66659L13.6651 1.76825V1.77992C14.3067 0.916585 15.3334 0.333252 16.5001 0.333252C17.4283 0.333252 18.3186 0.702001 18.975 1.35838C19.6313 2.01476 20.0001 2.90499 20.0001 3.83325C20.0001 4.24159 19.9301 4.63825 19.8017 4.99992H23.5001C24.1189 4.99992 24.7124 5.24575 25.15 5.68334C25.5876 6.12092 25.8334 6.71441 25.8334 7.33325V10.8333C25.8334 11.1427 25.7105 11.4394 25.4917 11.6582C25.2729 11.877 24.9762 11.9999 24.6667 11.9999ZM3.66675 21.3333H11.8334V11.9999H3.66675V21.3333ZM22.3334 21.3333V11.9999H14.1667V21.3333H22.3334ZM9.50008 2.66659C9.19066 2.66659 8.89392 2.7895 8.67512 3.00829C8.45633 3.22709 8.33341 3.52383 8.33341 3.83325C8.33341 4.14267 8.45633 4.43942 8.67512 4.65821C8.89392 4.877 9.19066 4.99992 9.50008 4.99992C9.8095 4.99992 10.1062 4.877 10.325 4.65821C10.5438 4.43942 10.6667 4.14267 10.6667 3.83325C10.6667 3.52383 10.5438 3.22709 10.325 3.00829C10.1062 2.7895 9.8095 2.66659 9.50008 2.66659ZM16.5001 2.66659C16.1907 2.66659 15.8939 2.7895 15.6751 3.00829C15.4563 3.22709 15.3334 3.52383 15.3334 3.83325C15.3334 4.14267 15.4563 4.43942 15.6751 4.65821C15.8939 4.877 16.1907 4.99992 16.5001 4.99992C16.8095 4.99992 17.1062 4.877 17.325 4.65821C17.5438 4.43942 17.6667 4.14267 17.6667 3.83325C17.6667 3.52383 17.5438 3.22709 17.325 3.00829C17.1062 2.7895 16.8095 2.66659 16.5001 2.66659ZM2.50008 7.33325V9.66659H11.8334V7.33325H2.50008ZM14.1667 7.33325V9.66659H23.5001V7.33325H14.1667Z" fill="#87EDFB"/>
</svg>
